<?xml version="1.0" encoding="UTF-8" standalone="no"?>
<svg
   xmlns:dc="http://purl.org/dc/elements/1.1/"
   xmlns:cc="http://creativecommons.org/ns#"
   xmlns:rdf="http://www.w3.org/1999/02/22-rdf-syntax-ns#"
   xmlns:svg="http://www.w3.org/2000/svg"
   xmlns="http://www.w3.org/2000/svg"
   xmlns:sodipodi="http://sodipodi.sourceforge.net/DTD/sodipodi-0.dtd"
   xmlns:inkscape="http://www.inkscape.org/namespaces/inkscape"
   width="298.84186"
   zoomAndPan="magnify"
   viewBox="0 0 224.1314 18.540624"
   height="24.720833"
   preserveAspectRatio="xMidYMid meet"
   version="1.0"
   id="svg92"
   sodipodi:docname="Fusion Labs Logo.svg"
   inkscape:version="0.92.5 (2060ec1f9f, 2020-04-08)">
  <metadata
     id="metadata96">
    <rdf:RDF>
      <cc:Work
         rdf:about="">
        <dc:format>image/svg+xml</dc:format>
        <dc:type
           rdf:resource="http://purl.org/dc/dcmitype/StillImage" />
        <dc:title></dc:title>
      </cc:Work>
    </rdf:RDF>
  </metadata>
  <sodipodi:namedview
     pagecolor="#ffffff"
     bordercolor="#666666"
     borderopacity="1"
     objecttolerance="10"
     gridtolerance="10"
     guidetolerance="10"
     inkscape:pageopacity="0"
     inkscape:pageshadow="2"
     inkscape:window-width="2139"
     inkscape:window-height="1100"
     id="namedview94"
     showgrid="false"
     fit-margin-top="0.1"
     fit-margin-left="0.1"
     fit-margin-right="0.1"
     fit-margin-bottom="0.1"
     inkscape:zoom="0.472"
     inkscape:cx="148.6897"
     inkscape:cy="-6.2030869"
     inkscape:window-x="0"
     inkscape:window-y="27"
     inkscape:window-maximized="0"
     inkscape:current-layer="svg92" />
  <defs
     id="defs4">
    <g
       id="g2" />
  </defs>
  <g
     id="g12"
     style="fill:#000000;fill-opacity:1"
     transform="translate(-75.982722,-164.30706)">
    <g
       transform="translate(74.260847,182.56956)"
       id="g10">
      <g
         id="g8">
        <path
           d="m 15.125,-14.390625 h -8.75 v 4.171875 h 8.0625 V -6.625 H 6.375 V 0 H 1.796875 V -17.984375 H 15.125 Z m 0,0"
           id="path6"
           inkscape:connector-curvature="0" />
      </g>
    </g>
  </g>
  <g
     id="g20"
     style="fill:#000000;fill-opacity:1"
     transform="translate(-75.982722,-164.30706)">
    <g
       transform="translate(94.863848,182.56956)"
       id="g18">
      <g
         id="g16">
        <path
           d="m 17.984375,-17.984375 v 10.4375 c 0,2.375 -0.742187,4.261719 -2.21875,5.65625 -1.46875,1.398437 -3.464844,2.09375 -5.984375,2.09375 -2.53125,0 -4.546875,-0.695313 -6.046875,-2.09375 -1.5,-1.394531 -2.25,-3.28125 -2.25,-5.65625 v -10.4375 H 6.0625 v 10.4375 c 0,1.199219 0.34375,2.152344 1.03125,2.859375 0.695312,0.710938 1.601562,1.0625 2.71875,1.0625 1.09375,0 1.96875,-0.347656 2.625,-1.046875 0.664062,-0.707031 1,-1.664063 1,-2.875 v -10.4375 z m 0,0"
           id="path14"
           inkscape:connector-curvature="0" />
      </g>
    </g>
  </g>
  <g
     id="g28"
     style="fill:#000000;fill-opacity:1"
     transform="translate(-75.982722,-164.30706)">
    <g
       transform="translate(119.42273,182.56956)"
       id="g26">
      <g
         id="g24">
        <path
           d="m 8.703125,-18.1875 c 2.6875,0 5.050781,0.667969 7.09375,2 l -1.71875,3.578125 c -0.949219,-0.550781 -1.964844,-1 -3.046875,-1.34375 -1.074219,-0.351563 -1.976562,-0.53125 -2.703125,-0.53125 -1.324219,0 -1.984375,0.4375 -1.984375,1.3125 0,0.5625 0.320312,1.015625 0.96875,1.359375 0.65625,0.34375 1.445312,0.640625 2.375,0.890625 0.9375,0.242187 1.867188,0.539063 2.796875,0.890625 0.9375,0.355469 1.726563,0.929688 2.375,1.71875 0.65625,0.78125 0.984375,1.773438 0.984375,2.96875 0,1.730469 -0.679688,3.078125 -2.03125,4.046875 C 12.46875,-0.328125 10.75,0.15625 8.65625,0.15625 7.164062,0.15625 5.691406,-0.0976562 4.234375,-0.609375 2.785156,-1.128906 1.519531,-1.832031 0.4375,-2.71875 l 1.765625,-3.515625 c 0.914063,0.78125 1.988281,1.429687 3.21875,1.9375 1.226563,0.5 2.320313,0.75 3.28125,0.75 0.738281,0 1.3125,-0.128906 1.71875,-0.390625 0.414063,-0.269531 0.625,-0.660156 0.625,-1.171875 0,-0.5 -0.242187,-0.914063 -0.71875,-1.25 C 9.859375,-6.691406 9.273438,-6.9375 8.578125,-7.09375 7.878906,-7.257812 7.117188,-7.476562 6.296875,-7.75 5.472656,-8.03125 4.707031,-8.332031 4,-8.65625 3.300781,-8.976562 2.71875,-9.492188 2.25,-10.203125 c -0.46875,-0.71875 -0.703125,-1.570313 -0.703125,-2.5625 0,-1.644531 0.648437,-2.957031 1.953125,-3.9375 1.3125,-0.988281 3.046875,-1.484375 5.203125,-1.484375 z m 0,0"
           id="path22"
           inkscape:connector-curvature="0" />
      </g>
    </g>
  </g>
  <g
     id="g36"
     style="fill:#000000;fill-opacity:1"
     transform="translate(-75.982722,-164.30706)">
    <g
       transform="translate(141.05322,182.56956)"
       id="g34">
      <g
         id="g32">
        <path
           d="M 6.375,0 H 1.796875 V -17.984375 H 6.375 Z m 0,0"
           id="path30"
           inkscape:connector-curvature="0" />
      </g>
    </g>
  </g>
  <g
     id="g44"
     style="fill:#000000;fill-opacity:1"
     transform="translate(-75.982722,-164.30706)">
    <g
       transform="translate(154.3096,182.56956)"
       id="g42">
      <g
         id="g40">
        <path
           d="m 10.328125,-18.140625 c 2.789063,0 5.109375,0.871094 6.953125,2.609375 1.851562,1.742188 2.78125,3.914062 2.78125,6.515625 0,2.617187 -0.933594,4.808594 -2.796875,6.578125 -1.855469,1.761719 -4.167969,2.640625 -6.9375,2.640625 -2.773437,0 -5.085937,-0.875 -6.9375,-2.625 -1.855469,-1.757813 -2.78125,-3.957031 -2.78125,-6.59375 0,-2.625 0.925781,-4.800781 2.78125,-6.53125 1.851563,-1.726563 4.164063,-2.59375 6.9375,-2.59375 z M 10.375,-14.3125 c -1.40625,0 -2.605469,0.511719 -3.59375,1.53125 -0.992188,1.023438 -1.484375,2.289062 -1.484375,3.796875 0,1.5 0.5,2.773437 1.5,3.8125 1,1.03125 2.191406,1.546875 3.578125,1.546875 1.382812,0 2.5625,-0.515625 3.53125,-1.546875 0.96875,-1.039063 1.453125,-2.3125 1.453125,-3.8125 0,-1.507813 -0.484375,-2.773437 -1.453125,-3.796875 -0.96875,-1.019531 -2.148438,-1.53125 -3.53125,-1.53125 z m 0,0"
           id="path38"
           inkscape:connector-curvature="0" />
      </g>
    </g>
  </g>
  <g
     id="g52"
     style="fill:#000000;fill-opacity:1"
     transform="translate(-75.982722,-164.30706)">
    <g
       transform="translate(180.0758,182.56956)"
       id="g50">
      <g
         id="g48">
        <path
           d="m 18.390625,0 h -4.03125 L 6.09375,-11.078125 V 0 H 1.796875 v -17.984375 h 4.03125 L 14.125,-6.890625 v -11.09375 h 4.265625 z m 0,0"
           id="path46"
           inkscape:connector-curvature="0" />
      </g>
    </g>
  </g>
  <g
     id="g58"
     style="fill:#000000;fill-opacity:1"
     transform="translate(-75.982722,-164.30706)">
    <g
       transform="translate(205.35393,182.56956)"
       id="g56">
      <g
         id="g54" />
    </g>
  </g>
  <g
     id="g66"
     style="fill:#000000;fill-opacity:1"
     transform="translate(-75.982722,-164.30706)">
    <g
       transform="translate(216.40117,182.56956)"
       id="g64">
      <g
         id="g62">
        <path
           d="M 6.375,-3.828125 H 14 V 0 H 1.796875 V -17.984375 H 6.375 Z m 0,0"
           id="path60"
           inkscape:connector-curvature="0" />
      </g>
    </g>
  </g>
  <g
     id="g74"
     style="fill:#000000;fill-opacity:1"
     transform="translate(-75.982722,-164.30706)">
    <g
       transform="translate(235.87392,182.56956)"
       id="g72">
      <g
         id="g70">
        <path
           d="M 13.75,-3.3125 H 5.875 L 4.578125,0 H -0.125 l 7.75,-17.984375 h 4.703125 L 19.90625,0 h -4.875 z m -1.34375,-3.46875 -2.5625,-6.65625 -2.625,6.65625 z m 0,0"
           id="path68"
           inkscape:connector-curvature="0" />
      </g>
    </g>
  </g>
  <g
     id="g82"
     style="fill:#000000;fill-opacity:1"
     transform="translate(-75.982722,-164.30706)">
    <g
       transform="translate(260.74105,182.56956)"
       id="g80">
      <g
         id="g78">
        <path
           d="m 1.796875,-17.984375 h 8.5 c 2.019531,0 3.625,0.40625 4.8125,1.21875 1.195313,0.8125 1.796875,1.90625 1.796875,3.28125 0,0.9375 -0.277344,1.765625 -0.828125,2.484375 -0.542969,0.710938 -1.296875,1.199219 -2.265625,1.46875 1.132812,0.21875 2.035156,0.742188 2.703125,1.5625 0.664063,0.824219 1,1.820312 1,2.984375 0,1.523437 -0.621094,2.734375 -1.859375,3.640625 C 14.414062,-0.445312 12.734375,0 10.609375,0 h -8.8125 z m 4.546875,3.5 v 3.703125 h 3.703125 c 0.664063,0 1.195313,-0.164062 1.59375,-0.5 0.394531,-0.34375 0.59375,-0.800781 0.59375,-1.375 0,-0.570312 -0.199219,-1.019531 -0.59375,-1.34375 -0.398437,-0.320312 -0.929687,-0.484375 -1.59375,-0.484375 z m 0,6.984375 v 3.984375 h 3.703125 c 0.851563,0 1.523437,-0.175781 2.015625,-0.53125 0.488281,-0.363281 0.734375,-0.863281 0.734375,-1.5 0,-0.601563 -0.246094,-1.078125 -0.734375,-1.421875 C 11.570312,-7.320312 10.898438,-7.5 10.046875,-7.5 Z m 0,0"
           id="path76"
           inkscape:connector-curvature="0" />
      </g>
    </g>
  </g>
  <g
     id="g90"
     style="fill:#000000;fill-opacity:1"
     transform="translate(-75.982722,-164.30706)">
    <g
       transform="translate(284.19537,182.56956)"
       id="g88">
      <g
         id="g86">
        <path
           d="m 8.703125,-18.1875 c 2.6875,0 5.050781,0.667969 7.09375,2 l -1.71875,3.578125 c -0.949219,-0.550781 -1.964844,-1 -3.046875,-1.34375 -1.074219,-0.351563 -1.976562,-0.53125 -2.703125,-0.53125 -1.324219,0 -1.984375,0.4375 -1.984375,1.3125 0,0.5625 0.320312,1.015625 0.96875,1.359375 0.65625,0.34375 1.445312,0.640625 2.375,0.890625 0.9375,0.242187 1.867188,0.539063 2.796875,0.890625 0.9375,0.355469 1.726563,0.929688 2.375,1.71875 0.65625,0.78125 0.984375,1.773438 0.984375,2.96875 0,1.730469 -0.679688,3.078125 -2.03125,4.046875 C 12.46875,-0.328125 10.75,0.15625 8.65625,0.15625 7.164062,0.15625 5.691406,-0.0976562 4.234375,-0.609375 2.785156,-1.128906 1.519531,-1.832031 0.4375,-2.71875 l 1.765625,-3.515625 c 0.914063,0.78125 1.988281,1.429687 3.21875,1.9375 1.226563,0.5 2.320313,0.75 3.28125,0.75 0.738281,0 1.3125,-0.128906 1.71875,-0.390625 0.414063,-0.269531 0.625,-0.660156 0.625,-1.171875 0,-0.5 -0.242187,-0.914063 -0.71875,-1.25 C 9.859375,-6.691406 9.273438,-6.9375 8.578125,-7.09375 7.878906,-7.257812 7.117188,-7.476562 6.296875,-7.75 5.472656,-8.03125 4.707031,-8.332031 4,-8.65625 3.300781,-8.976562 2.71875,-9.492188 2.25,-10.203125 c -0.46875,-0.71875 -0.703125,-1.570313 -0.703125,-2.5625 0,-1.644531 0.648437,-2.957031 1.953125,-3.9375 1.3125,-0.988281 3.046875,-1.484375 5.203125,-1.484375 z m 0,0"
           id="path84"
           inkscape:connector-curvature="0" />
      </g>
    </g>
  </g>
</svg>
